<mxfile host="app.diagrams.net" modified="2020-06-24T07:58:33.736Z" agent="5.0 (Windows NT 10.0; Win64; x64) AppleWebKit/537.36 (KHTML, like Gecko) Chrome/83.0.4103.116 Safari/537.36" etag="6Mv6ozlXA917F4DBg-XP" version="13.3.1" type="github">
  <diagram id="C5RBs43oDa-KdzZeNtuy" name="Page-1">
    <mxGraphModel dx="1422" dy="882" grid="1" gridSize="10" guides="1" tooltips="1" connect="1" arrows="1" fold="1" page="1" pageScale="1" pageWidth="827" pageHeight="1169" math="0" shadow="0">
      <root>
        <mxCell id="WIyWlLk6GJQsqaUBKTNV-0" />
        <mxCell id="WIyWlLk6GJQsqaUBKTNV-1" parent="WIyWlLk6GJQsqaUBKTNV-0" />
        <mxCell id="WIyWlLk6GJQsqaUBKTNV-2" value="" style="rounded=0;html=1;jettySize=auto;orthogonalLoop=1;fontSize=11;endArrow=block;endFill=0;endSize=8;strokeWidth=1;shadow=0;labelBackgroundColor=none;edgeStyle=orthogonalEdgeStyle;" parent="WIyWlLk6GJQsqaUBKTNV-1" source="WIyWlLk6GJQsqaUBKTNV-3" edge="1">
          <mxGeometry relative="1" as="geometry">
            <mxPoint x="195" y="170" as="targetPoint" />
          </mxGeometry>
        </mxCell>
        <mxCell id="WIyWlLk6GJQsqaUBKTNV-3" value="开始" style="rounded=1;whiteSpace=wrap;html=1;fontSize=12;glass=0;strokeWidth=1;shadow=0;" parent="WIyWlLk6GJQsqaUBKTNV-1" vertex="1">
          <mxGeometry x="135" y="50" width="120" height="40" as="geometry" />
        </mxCell>
        <mxCell id="8OcqR2B387YAhKKuT4QE-5" style="edgeStyle=orthogonalEdgeStyle;rounded=0;orthogonalLoop=1;jettySize=auto;html=1;exitX=1;exitY=0.5;exitDx=0;exitDy=0;entryX=0;entryY=0.5;entryDx=0;entryDy=0;" parent="WIyWlLk6GJQsqaUBKTNV-1" source="8OcqR2B387YAhKKuT4QE-9" target="8OcqR2B387YAhKKuT4QE-4" edge="1">
          <mxGeometry relative="1" as="geometry">
            <mxPoint x="323.75" y="225" as="sourcePoint" />
          </mxGeometry>
        </mxCell>
        <mxCell id="8OcqR2B387YAhKKuT4QE-12" style="edgeStyle=orthogonalEdgeStyle;rounded=0;orthogonalLoop=1;jettySize=auto;html=1;exitX=0.5;exitY=1;exitDx=0;exitDy=0;entryX=0.5;entryY=0;entryDx=0;entryDy=0;" parent="WIyWlLk6GJQsqaUBKTNV-1" source="8OcqR2B387YAhKKuT4QE-4" target="8OcqR2B387YAhKKuT4QE-8" edge="1">
          <mxGeometry relative="1" as="geometry" />
        </mxCell>
        <mxCell id="8OcqR2B387YAhKKuT4QE-15" style="edgeStyle=orthogonalEdgeStyle;rounded=0;orthogonalLoop=1;jettySize=auto;html=1;exitX=1;exitY=0.5;exitDx=0;exitDy=0;" parent="WIyWlLk6GJQsqaUBKTNV-1" source="8OcqR2B387YAhKKuT4QE-4" target="8OcqR2B387YAhKKuT4QE-14" edge="1">
          <mxGeometry relative="1" as="geometry" />
        </mxCell>
        <mxCell id="8OcqR2B387YAhKKuT4QE-4" value="redis中找&lt;br&gt;key:merchantConfig" style="rounded=0;whiteSpace=wrap;html=1;" parent="WIyWlLk6GJQsqaUBKTNV-1" vertex="1">
          <mxGeometry x="450" y="183.5" width="120" height="60" as="geometry" />
        </mxCell>
        <mxCell id="8OcqR2B387YAhKKuT4QE-6" value="redis中值为空" style="text;html=1;align=center;verticalAlign=middle;resizable=0;points=[];autosize=1;" parent="WIyWlLk6GJQsqaUBKTNV-1" vertex="1">
          <mxGeometry x="330" y="190" width="90" height="20" as="geometry" />
        </mxCell>
        <mxCell id="8OcqR2B387YAhKKuT4QE-20" style="edgeStyle=orthogonalEdgeStyle;rounded=0;orthogonalLoop=1;jettySize=auto;html=1;entryX=0.5;entryY=0;entryDx=0;entryDy=0;" parent="WIyWlLk6GJQsqaUBKTNV-1" source="8OcqR2B387YAhKKuT4QE-8" target="8OcqR2B387YAhKKuT4QE-17" edge="1">
          <mxGeometry relative="1" as="geometry">
            <Array as="points">
              <mxPoint x="795" y="360" />
            </Array>
          </mxGeometry>
        </mxCell>
        <mxCell id="8OcqR2B387YAhKKuT4QE-25" style="edgeStyle=orthogonalEdgeStyle;rounded=0;orthogonalLoop=1;jettySize=auto;html=1;exitX=0.5;exitY=1;exitDx=0;exitDy=0;entryX=0.5;entryY=0;entryDx=0;entryDy=0;" parent="WIyWlLk6GJQsqaUBKTNV-1" source="8OcqR2B387YAhKKuT4QE-8" target="8OcqR2B387YAhKKuT4QE-22" edge="1">
          <mxGeometry relative="1" as="geometry" />
        </mxCell>
        <mxCell id="8OcqR2B387YAhKKuT4QE-8" value="转为ProjectCaseConfigEntity类型" style="rounded=0;whiteSpace=wrap;html=1;" parent="WIyWlLk6GJQsqaUBKTNV-1" vertex="1">
          <mxGeometry x="430" y="330" width="160" height="60" as="geometry" />
        </mxCell>
        <mxCell id="8OcqR2B387YAhKKuT4QE-41" style="edgeStyle=orthogonalEdgeStyle;rounded=0;orthogonalLoop=1;jettySize=auto;html=1;" parent="WIyWlLk6GJQsqaUBKTNV-1" source="8OcqR2B387YAhKKuT4QE-9" target="8OcqR2B387YAhKKuT4QE-40" edge="1">
          <mxGeometry relative="1" as="geometry" />
        </mxCell>
        <mxCell id="8OcqR2B387YAhKKuT4QE-9" value="&lt;span&gt;redis找&lt;/span&gt;&lt;br&gt;&lt;span&gt;key:config:channel:nvr_should_config&lt;/span&gt;" style="rounded=0;whiteSpace=wrap;html=1;" parent="WIyWlLk6GJQsqaUBKTNV-1" vertex="1">
          <mxGeometry x="87.5" y="167" width="215" height="93" as="geometry" />
        </mxCell>
        <mxCell id="8OcqR2B387YAhKKuT4QE-13" value="不为空" style="text;html=1;align=center;verticalAlign=middle;resizable=0;points=[];autosize=1;" parent="WIyWlLk6GJQsqaUBKTNV-1" vertex="1">
          <mxGeometry x="515" y="270" width="50" height="20" as="geometry" />
        </mxCell>
        <mxCell id="8OcqR2B387YAhKKuT4QE-14" value="抛出异常：&lt;br&gt;&quot;项目未初始化，请初始化绑定商户！！&quot;" style="rounded=0;whiteSpace=wrap;html=1;" parent="WIyWlLk6GJQsqaUBKTNV-1" vertex="1">
          <mxGeometry x="690" y="183.5" width="210" height="60" as="geometry" />
        </mxCell>
        <mxCell id="8OcqR2B387YAhKKuT4QE-16" value="redis中值为空" style="text;html=1;align=center;verticalAlign=middle;resizable=0;points=[];autosize=1;" parent="WIyWlLk6GJQsqaUBKTNV-1" vertex="1">
          <mxGeometry x="580" y="190" width="90" height="20" as="geometry" />
        </mxCell>
        <mxCell id="8OcqR2B387YAhKKuT4QE-17" value="程序异常退出" style="rounded=0;whiteSpace=wrap;html=1;" parent="WIyWlLk6GJQsqaUBKTNV-1" vertex="1">
          <mxGeometry x="735" y="1109" width="120" height="60" as="geometry" />
        </mxCell>
        <mxCell id="8OcqR2B387YAhKKuT4QE-19" value="失败，抛出异常" style="text;html=1;align=center;verticalAlign=middle;resizable=0;points=[];autosize=1;" parent="WIyWlLk6GJQsqaUBKTNV-1" vertex="1">
          <mxGeometry x="645" y="340" width="100" height="20" as="geometry" />
        </mxCell>
        <mxCell id="8OcqR2B387YAhKKuT4QE-23" style="edgeStyle=orthogonalEdgeStyle;rounded=0;orthogonalLoop=1;jettySize=auto;html=1;entryX=0.5;entryY=0;entryDx=0;entryDy=0;" parent="WIyWlLk6GJQsqaUBKTNV-1" source="8OcqR2B387YAhKKuT4QE-22" target="8OcqR2B387YAhKKuT4QE-17" edge="1">
          <mxGeometry relative="1" as="geometry" />
        </mxCell>
        <mxCell id="8OcqR2B387YAhKKuT4QE-30" style="edgeStyle=orthogonalEdgeStyle;rounded=0;orthogonalLoop=1;jettySize=auto;html=1;exitX=0.5;exitY=1;exitDx=0;exitDy=0;entryX=0.5;entryY=0;entryDx=0;entryDy=0;" parent="WIyWlLk6GJQsqaUBKTNV-1" source="8OcqR2B387YAhKKuT4QE-22" target="8OcqR2B387YAhKKuT4QE-29" edge="1">
          <mxGeometry relative="1" as="geometry" />
        </mxCell>
        <mxCell id="8OcqR2B387YAhKKuT4QE-22" value="&lt;span&gt;ProjectCaseConfigEntity.getProjectId()&lt;/span&gt;" style="rounded=0;whiteSpace=wrap;html=1;" parent="WIyWlLk6GJQsqaUBKTNV-1" vertex="1">
          <mxGeometry x="372.5" y="437" width="275" height="60" as="geometry" />
        </mxCell>
        <mxCell id="8OcqR2B387YAhKKuT4QE-27" value="为空，抛出异常：&lt;br&gt;项目账号绑定信息丢失，&lt;br&gt;请重新绑定" style="text;html=1;align=center;verticalAlign=middle;resizable=0;points=[];autosize=1;" parent="WIyWlLk6GJQsqaUBKTNV-1" vertex="1">
          <mxGeometry x="640" y="400" width="150" height="50" as="geometry" />
        </mxCell>
        <mxCell id="8OcqR2B387YAhKKuT4QE-28" style="edgeStyle=orthogonalEdgeStyle;rounded=0;orthogonalLoop=1;jettySize=auto;html=1;" parent="WIyWlLk6GJQsqaUBKTNV-1" source="8OcqR2B387YAhKKuT4QE-14" edge="1">
          <mxGeometry relative="1" as="geometry">
            <mxPoint x="795" y="243.5" as="sourcePoint" />
            <mxPoint x="795" y="1110" as="targetPoint" />
          </mxGeometry>
        </mxCell>
        <mxCell id="8OcqR2B387YAhKKuT4QE-43" style="edgeStyle=orthogonalEdgeStyle;rounded=0;orthogonalLoop=1;jettySize=auto;html=1;entryX=1;entryY=0.5;entryDx=0;entryDy=0;" parent="WIyWlLk6GJQsqaUBKTNV-1" source="8OcqR2B387YAhKKuT4QE-29" target="8OcqR2B387YAhKKuT4QE-40" edge="1">
          <mxGeometry relative="1" as="geometry">
            <mxPoint x="260" y="585" as="targetPoint" />
          </mxGeometry>
        </mxCell>
        <mxCell id="8OcqR2B387YAhKKuT4QE-29" value="Boolean result = faceDetectApi.getScreenshots();" style="rounded=0;whiteSpace=wrap;html=1;" parent="WIyWlLk6GJQsqaUBKTNV-1" vertex="1">
          <mxGeometry x="370" y="585" width="280" height="60" as="geometry" />
        </mxCell>
        <mxCell id="8OcqR2B387YAhKKuT4QE-33" value="返回result并将结果存到redis&lt;br&gt;key:&lt;span&gt;channel:nvr_should_config中&lt;/span&gt;" style="text;html=1;align=center;verticalAlign=middle;resizable=0;points=[];autosize=1;" parent="WIyWlLk6GJQsqaUBKTNV-1" vertex="1">
          <mxGeometry x="224" y="540" width="190" height="30" as="geometry" />
        </mxCell>
        <mxCell id="8OcqR2B387YAhKKuT4QE-46" style="edgeStyle=orthogonalEdgeStyle;rounded=0;orthogonalLoop=1;jettySize=auto;html=1;entryX=0.5;entryY=0;entryDx=0;entryDy=0;" parent="WIyWlLk6GJQsqaUBKTNV-1" source="8OcqR2B387YAhKKuT4QE-40" target="8OcqR2B387YAhKKuT4QE-45" edge="1">
          <mxGeometry relative="1" as="geometry" />
        </mxCell>
        <mxCell id="8OcqR2B387YAhKKuT4QE-49" style="edgeStyle=orthogonalEdgeStyle;rounded=0;orthogonalLoop=1;jettySize=auto;html=1;entryX=0;entryY=0.5;entryDx=0;entryDy=0;" parent="WIyWlLk6GJQsqaUBKTNV-1" source="8OcqR2B387YAhKKuT4QE-40" target="8OcqR2B387YAhKKuT4QE-48" edge="1">
          <mxGeometry relative="1" as="geometry">
            <Array as="points">
              <mxPoint x="195" y="840" />
            </Array>
          </mxGeometry>
        </mxCell>
        <mxCell id="8OcqR2B387YAhKKuT4QE-40" value="是否需要视频" style="rounded=0;whiteSpace=wrap;html=1;" parent="WIyWlLk6GJQsqaUBKTNV-1" vertex="1">
          <mxGeometry x="135" y="585" width="120" height="60" as="geometry" />
        </mxCell>
        <mxCell id="8OcqR2B387YAhKKuT4QE-42" value="redis中值不为空" style="text;html=1;align=center;verticalAlign=middle;resizable=0;points=[];autosize=1;" parent="WIyWlLk6GJQsqaUBKTNV-1" vertex="1">
          <mxGeometry x="202.5" y="320" width="100" height="20" as="geometry" />
        </mxCell>
        <mxCell id="8OcqR2B387YAhKKuT4QE-45" value="程序正常启动" style="rounded=0;whiteSpace=wrap;html=1;" parent="WIyWlLk6GJQsqaUBKTNV-1" vertex="1">
          <mxGeometry x="135" y="1109" width="120" height="60" as="geometry" />
        </mxCell>
        <mxCell id="8OcqR2B387YAhKKuT4QE-47" value="如果为false" style="text;html=1;align=center;verticalAlign=middle;resizable=0;points=[];autosize=1;" parent="WIyWlLk6GJQsqaUBKTNV-1" vertex="1">
          <mxGeometry x="110" y="890" width="80" height="20" as="geometry" />
        </mxCell>
        <mxCell id="8OcqR2B387YAhKKuT4QE-51" style="edgeStyle=orthogonalEdgeStyle;rounded=0;orthogonalLoop=1;jettySize=auto;html=1;entryX=0.5;entryY=0;entryDx=0;entryDy=0;" parent="WIyWlLk6GJQsqaUBKTNV-1" source="8OcqR2B387YAhKKuT4QE-48" target="8OcqR2B387YAhKKuT4QE-17" edge="1">
          <mxGeometry relative="1" as="geometry" />
        </mxCell>
        <mxCell id="8OcqR2B387YAhKKuT4QE-54" style="edgeStyle=orthogonalEdgeStyle;rounded=0;orthogonalLoop=1;jettySize=auto;html=1;entryX=0.5;entryY=0;entryDx=0;entryDy=0;" parent="WIyWlLk6GJQsqaUBKTNV-1" source="8OcqR2B387YAhKKuT4QE-48" target="8OcqR2B387YAhKKuT4QE-53" edge="1">
          <mxGeometry relative="1" as="geometry" />
        </mxCell>
        <mxCell id="8OcqR2B387YAhKKuT4QE-48" value="ffmpeg的依赖检查：&lt;br&gt;2个文件是否存在：&lt;br&gt;ffmpeg.exe和ffprobe.exe" style="rounded=0;whiteSpace=wrap;html=1;" parent="WIyWlLk6GJQsqaUBKTNV-1" vertex="1">
          <mxGeometry x="450" y="810" width="200" height="60" as="geometry" />
        </mxCell>
        <mxCell id="8OcqR2B387YAhKKuT4QE-50" value="如果为true" style="text;html=1;align=center;verticalAlign=middle;resizable=0;points=[];autosize=1;" parent="WIyWlLk6GJQsqaUBKTNV-1" vertex="1">
          <mxGeometry x="284" y="819" width="70" height="20" as="geometry" />
        </mxCell>
        <mxCell id="8OcqR2B387YAhKKuT4QE-52" value="2个文件不存在" style="text;html=1;align=center;verticalAlign=middle;resizable=0;points=[];autosize=1;" parent="WIyWlLk6GJQsqaUBKTNV-1" vertex="1">
          <mxGeometry x="685" y="819" width="90" height="20" as="geometry" />
        </mxCell>
        <mxCell id="8OcqR2B387YAhKKuT4QE-60" style="edgeStyle=orthogonalEdgeStyle;rounded=0;orthogonalLoop=1;jettySize=auto;html=1;entryX=1;entryY=0.5;entryDx=0;entryDy=0;" parent="WIyWlLk6GJQsqaUBKTNV-1" source="8OcqR2B387YAhKKuT4QE-53" target="8OcqR2B387YAhKKuT4QE-45" edge="1">
          <mxGeometry relative="1" as="geometry" />
        </mxCell>
        <mxCell id="AER5DHuSXVSgTBMbcSWO-1" style="edgeStyle=orthogonalEdgeStyle;rounded=0;orthogonalLoop=1;jettySize=auto;html=1;entryX=0.5;entryY=-0.1;entryDx=0;entryDy=0;entryPerimeter=0;" edge="1" parent="WIyWlLk6GJQsqaUBKTNV-1" source="8OcqR2B387YAhKKuT4QE-53" target="8OcqR2B387YAhKKuT4QE-63">
          <mxGeometry relative="1" as="geometry" />
        </mxCell>
        <mxCell id="8OcqR2B387YAhKKuT4QE-53" value="通道配置检查" style="rounded=0;whiteSpace=wrap;html=1;" parent="WIyWlLk6GJQsqaUBKTNV-1" vertex="1">
          <mxGeometry x="490" y="1109" width="120" height="60" as="geometry" />
        </mxCell>
        <mxCell id="8OcqR2B387YAhKKuT4QE-56" value="没有通道" style="text;html=1;align=center;verticalAlign=middle;resizable=0;points=[];autosize=1;" parent="WIyWlLk6GJQsqaUBKTNV-1" vertex="1">
          <mxGeometry x="640" y="1110" width="60" height="20" as="geometry" />
        </mxCell>
        <mxCell id="8OcqR2B387YAhKKuT4QE-58" value="有通道" style="text;html=1;align=center;verticalAlign=middle;resizable=0;points=[];autosize=1;" parent="WIyWlLk6GJQsqaUBKTNV-1" vertex="1">
          <mxGeometry x="340" y="1109" width="50" height="20" as="geometry" />
        </mxCell>
        <mxCell id="AER5DHuSXVSgTBMbcSWO-0" style="edgeStyle=orthogonalEdgeStyle;rounded=0;orthogonalLoop=1;jettySize=auto;html=1;entryX=0.5;entryY=1;entryDx=0;entryDy=0;" edge="1" parent="WIyWlLk6GJQsqaUBKTNV-1" source="8OcqR2B387YAhKKuT4QE-63" target="8OcqR2B387YAhKKuT4QE-45">
          <mxGeometry relative="1" as="geometry" />
        </mxCell>
        <mxCell id="8OcqR2B387YAhKKuT4QE-63" value="&lt;h3&gt;&lt;font style=&quot;font-size: 18px&quot; color=&quot;#ff8000&quot;&gt;&lt;b&gt;&lt;u&gt;现在需要修改为：无论通道检查是否成功都需要让程序正常启动&lt;/u&gt;&lt;/b&gt;&lt;/font&gt;&lt;/h3&gt;" style="text;html=1;align=center;verticalAlign=middle;resizable=0;points=[];autosize=1;fillColor=#f8cecc;strokeColor=#b85450;" parent="WIyWlLk6GJQsqaUBKTNV-1" vertex="1">
          <mxGeometry x="290" y="1210" width="520" height="50" as="geometry" />
        </mxCell>
        <mxCell id="AER5DHuSXVSgTBMbcSWO-4" value="" style="endArrow=none;dashed=1;html=1;exitX=1;exitY=0.5;exitDx=0;exitDy=0;entryX=0;entryY=0.5;entryDx=0;entryDy=0;" edge="1" parent="WIyWlLk6GJQsqaUBKTNV-1" source="8OcqR2B387YAhKKuT4QE-53" target="8OcqR2B387YAhKKuT4QE-17">
          <mxGeometry width="50" height="50" relative="1" as="geometry">
            <mxPoint x="700" y="1280" as="sourcePoint" />
            <mxPoint x="750" y="1230" as="targetPoint" />
          </mxGeometry>
        </mxCell>
      </root>
    </mxGraphModel>
  </diagram>
</mxfile>
